<svg width="26" height="28" viewBox="0 0 26 28" fill="none" xmlns="http://www.w3.org/2000/svg">
<mask id="mask0_956_28603" style="mask-type:luminance" maskUnits="userSpaceOnUse" x="0" y="0" width="26" height="29">
<path d="M25.4141 0.145691H0.168945V28.0047H25.4141V0.145691Z" fill="white"/>
</mask>
<g mask="url(#mask0_956_28603)">
<path d="M21.4332 7.26955C21.5655 5.40527 20.4787 3.67123 18.7528 2.9935C17.027 2.31374 15.0629 2.84696 13.9069 4.30624L13.0786 4.01927L12.234 3.75468L11.3792 3.51453C12.5474 1.50574 14.6539 0.237781 16.9618 0.150265C19.2699 0.0647851 21.4679 1.17399 22.7805 3.09119L25.4143 3.27639L21.4332 7.26955Z" fill="#2E9CA6"/>
<path d="M23.3749 14.3767L23.3565 14.9526L23.3158 15.5286L23.2507 16.0985L23.1611 16.6622L23.0472 17.226L22.9107 17.7837L22.75 18.3352L22.5648 18.8806L22.3573 19.414L22.1312 19.9411L21.8749 20.4498L21.6021 20.9587L21.3111 21.4512L20.9958 21.9254L20.6618 22.3935L20.3057 22.8432L19.9373 23.2748L19.5446 23.6941L19.1335 24.095L18.7122 24.4796L18.2724 24.8398L17.8146 25.1879L17.3444 25.5115L16.8621 25.8167L16.3634 26.0977L15.8587 26.3623L15.3418 26.6024L14.8126 26.8181L14.2773 27.0095L13.7359 27.1825L13.1824 27.327L12.6288 27.4531L12.063 27.5487L11.5033 27.6261L10.9334 27.675L10.3635 27.7054H9.79774L9.22788 27.681L8.658 27.6323L8.09221 27.5609L7.53253 27.4653L6.97283 27.3452L6.42535 27.2007L5.87786 27.038L5.53391 27.2292L5.17164 27.3982L4.80935 27.5549L4.43488 27.6872L4.05429 27.795L3.66759 27.8784L3.27479 27.9436L2.88197 27.9864L2.48308 28.0047L2.08417 27.9985L1.69137 27.9742L1.29856 27.9191L0.905762 27.8479L5.05765 23.6798C9.16071 25.8819 14.2061 25.1308 17.5032 21.8256C20.7983 18.5204 21.5736 13.4344 19.4143 9.28447L21.4291 7.26349L21.7161 7.76416L21.9787 8.27297L22.2228 8.78789L22.4427 9.32111L22.6381 9.86045L22.8171 10.4059L22.9658 10.9575L23.0959 11.5151L23.1978 12.085L23.2751 12.6549L23.3342 13.2247L23.3647 13.7946L23.3707 14.3706L23.3749 14.3767Z" fill="#2E9CA6"/>
<path fill-rule="evenodd" clip-rule="evenodd" d="M10.0531 22.8025C14.7337 22.802 18.531 18.974 18.531 14.2505C18.531 12.9436 18.2144 11.7105 17.6475 10.5992L13.3988 15.7628C13.0631 16.1169 12.504 16.1317 12.15 15.796C11.796 15.4603 11.7811 14.9012 12.1168 14.5472L17.3061 9.99269C16.8022 9.17704 16.1586 8.43824 15.4052 7.7979L7.537 16.4457C7.02432 16.9239 6.22105 16.896 5.7428 16.3833C5.26457 15.8706 5.29249 15.0673 5.80517 14.5891L14.8232 7.33889C14.1476 6.84446 13.4001 6.42296 12.5982 6.08715C12.5962 6.08667 12.5944 6.08618 12.5927 6.08569C12.5907 6.08516 12.5888 6.08463 12.587 6.0841C12.5834 6.08308 12.5799 6.08206 12.5758 6.08104C9.75693 4.99118 6.81605 4.64417 3.72452 4.64417C2.71299 4.64417 1.71573 4.69911 0.732708 4.80495C0.366363 5.84699 0.168945 6.96638 0.168945 8.13461C0.168945 10.0457 0.700144 11.8286 1.62211 13.3469C1.58955 13.644 1.5753 13.9452 1.5753 14.2505C1.5753 18.974 5.37252 22.802 10.0531 22.8025Z" fill="#2E9CA6"/>
</g>
</svg> 