<svg width="32" height="32" viewBox="0 0 32 32" fill="none" xmlns="http://www.w3.org/2000/svg">
  <rect width="32" height="32" rx="8" fill="#6366F1" />
  <path d="M16.5 10.5C16.5 12.9853 14.4853 15 12 15C9.51472 15 7.5 12.9853 7.5 10.5C7.5 8.01472 9.51472 6 12 6C14.4853 6 16.5 8.01472 16.5 10.5Z" fill="white" />
  <path fill-rule="evenodd" clip-rule="evenodd" d="M23 16C24.6569 16 26 14.6569 26 13C26 11.3431 24.6569 10 23 10C21.3431 10 20 11.3431 20 13C20 14.6569 21.3431 16 23 16ZM23 18C25.7614 18 28 15.7614 28 13C28 10.2386 25.7614 8 23 8C20.2386 8 18 10.2386 18 13C18 15.7614 20.2386 18 23 18Z" fill="white" />
  <path d="M6 19.6585C6 19.2412 6.24362 18.8591 6.63635 18.6946L10.9745 16.7995C11.6344 16.5203 12.3656 16.5203 13.0255 16.7995L17.3637 18.6946C17.7564 18.8591 18 19.2412 18 19.6585V24.5C18 25.0523 17.5523 25.5 17 25.5H7C6.44772 25.5 6 25.0523 6 24.5V19.6585Z" fill="white" />
  <path d="M19 22.2676C19 21.7403 19.3679 21.2747 19.885 21.1379L22.885 20.1379C23.2828 20.0323 23.7172 20.0323 24.115 20.1379L27.115 21.1379C27.6321 21.2747 28 21.7403 28 22.2676V24.5C28 25.0523 27.5523 25.5 27 25.5H20C19.4477 25.5 19 25.0523 19 24.5V22.2676Z" fill="white" />
</svg> 